<svg width="162" height="140" viewBox="0 0 162 140" fill="none" xmlns="http://www.w3.org/2000/svg">
<path d="M157.167 -1.67717V160.342L31.674 81.0076L157.167 -1.67717Z" stroke="#1580FF" stroke-opacity="0.15" stroke-width="9.66667"/>
<path d="M-225.187 -58.1667H136.203C145.495 -58.1667 153.197 -51.9327 155.799 -43.2345L-44.4923 88.7264L-244.783 -43.2345C-242.181 -51.9327 -234.479 -58.1667 -225.187 -58.1667Z" stroke="#1580FF" stroke-opacity="0.15" stroke-width="9.66667"/>
<path d="M-34.7585 124.786L-34.7475 124.779L-0.826538 102.437L155.697 201.417C153.043 209.984 145.407 216.118 136.19 216.118H-225.2C-234.417 216.118 -242.053 209.984 -244.707 201.417L-88.1843 102.412L-54.2642 124.778L-54.2577 124.782L-54.2513 124.786C-51.2771 126.734 -47.9008 127.693 -44.5049 127.693C-41.109 127.693 -37.7326 126.733 -34.7585 124.786Z" stroke="#1580FF" stroke-opacity="0.15" stroke-width="9.66667"/>
</svg>
