<svg width="85" height="13" viewBox="0 0 85 13" fill="none" xmlns="http://www.w3.org/2000/svg">
<path d="M24.9375 10.6369L28.6455 12.9927L27.6615 8.55268L30.9375 5.56531L26.6235 5.17373L24.9375 0.992676L23.2515 5.17373L18.9375 5.56531L22.2075 8.55268L21.2295 12.9927L24.9375 10.6369Z" fill="#FFC107"/>
<path d="M42.9375 10.6369L46.6455 12.9927L45.6615 8.55268L48.9375 5.56531L44.6235 5.17373L42.9375 0.992676L41.2515 5.17373L36.9375 5.56531L40.2075 8.55268L39.2295 12.9927L42.9375 10.6369Z" fill="#FFC107"/>
<path d="M60.9375 10.6369L64.6455 12.9927L63.6615 8.55268L66.9375 5.56531L62.6235 5.17373L60.9375 0.992676L59.2515 5.17373L54.9375 5.56531L58.2075 8.55268L57.2295 12.9927L60.9375 10.6369Z" fill="#FFC107"/>
<path d="M6.9375 10.6369L10.6455 12.9927L9.6615 8.55268L12.9375 5.56531L8.6235 5.17373L6.9375 0.992676L5.2515 5.17373L0.9375 5.56531L4.2075 8.55268L3.2295 12.9927L6.9375 10.6369Z" fill="#FFC107"/>
<path d="M78.9375 9.45583V3.58215L79.9635 6.12741L82.5915 6.3611L80.5995 8.18636L81.1935 10.8895L78.9375 9.45583ZM84.9375 5.56531L80.6235 5.18004L78.9375 0.992676L77.2515 5.18004L72.9375 5.56531L76.2075 8.55268L75.2295 12.9927L78.9375 10.6369L82.6455 12.9927L81.6615 8.55268L84.9375 5.56531Z" fill="#FFC107"/>
</svg>
