<svg xmlns="http://www.w3.org/2000/svg" width="20" height="20" viewBox="0 0 20 20" fill="none">
<g clip-path="url(#clip0_1437:30606)">
<path d="M13.2578 10.1024L20.0003 14.3649V5.65991L13.2578 10.1024Z" fill="white"/>
<path d="M0 5.65991V14.3649L6.7425 10.1024L0 5.65991Z" fill="white"/>
<path d="M18.7496 3.125H1.24961C0.625859 3.125 0.130859 3.59 0.0371094 4.18875L9.99961 10.7525L19.9621 4.18875C19.8684 3.59 19.3734 3.125 18.7496 3.125Z" fill="white"/>
<path d="M12.1116 10.8577L10.3428 12.0227C10.2378 12.0914 10.1191 12.1252 9.99906 12.1252C9.87906 12.1252 9.76031 12.0914 9.65531 12.0227L7.88656 10.8564L0.0390625 15.8202C0.135313 16.4139 0.627813 16.8752 1.24906 16.8752H18.7491C19.3703 16.8752 19.8628 16.4139 19.9591 15.8202L12.1116 10.8577Z" fill="white"/>
</g>
<defs>
<clipPath id="clip0_1437:30606">
<rect width="20" height="20" fill="white"/>
</clipPath>
</defs>
</svg>