<svg xmlns="http://www.w3.org/2000/svg" width="40" height="33" viewBox="0 0 40 33" fill="none">
<path d="M10.1619 28.8525V27.2648C10.1619 26.6562 9.79147 26.2593 9.15638 26.2593C8.83884 26.2593 8.49484 26.3651 8.25668 26.7091C8.07145 26.418 7.80683 26.2593 7.40991 26.2593C7.14529 26.2593 6.88067 26.3386 6.66898 26.6297V26.3122H6.11328V28.8525H6.66898V27.45C6.66898 27.0002 6.90713 26.7885 7.2776 26.7885C7.64806 26.7885 7.8333 27.0266 7.8333 27.45V28.8525H8.38899V27.45C8.38899 27.0002 8.65361 26.7885 8.99761 26.7885C9.36808 26.7885 9.55331 27.0266 9.55331 27.45V28.8525H10.1619ZM18.3915 26.3122H17.4918V25.5448H16.9361V26.3122H16.4334V26.815H16.9361V27.9793C16.9361 28.5614 17.1743 28.9054 17.8094 28.9054C18.0475 28.9054 18.3121 28.8261 18.4974 28.7202L18.3386 28.2439C18.1798 28.3497 17.9946 28.3762 17.8623 28.3762C17.5977 28.3762 17.4918 28.2174 17.4918 27.9528V26.815H18.3915V26.3122ZM23.1017 26.2593C22.7842 26.2593 22.5725 26.418 22.4402 26.6297V26.3122H21.8845V28.8525H22.4402V27.4236C22.4402 27.0002 22.6254 26.762 22.9694 26.762C23.0753 26.762 23.2076 26.7885 23.3134 26.815L23.4722 26.2857C23.3663 26.2593 23.2076 26.2593 23.1017 26.2593ZM15.9835 26.5239C15.7189 26.3386 15.3484 26.2593 14.9515 26.2593C14.3164 26.2593 13.893 26.5768 13.893 27.0796C13.893 27.503 14.2106 27.7411 14.7663 27.8205L15.0309 27.847C15.322 27.8999 15.4807 27.9793 15.4807 28.1116C15.4807 28.2968 15.269 28.4291 14.8986 28.4291C14.5281 28.4291 14.237 28.2968 14.0518 28.1645L13.7872 28.5879C14.0783 28.7996 14.4752 28.9054 14.8721 28.9054C15.6131 28.9054 16.0364 28.5614 16.0364 28.0851C16.0364 27.6353 15.6924 27.3971 15.1632 27.3177L14.8986 27.2913C14.6604 27.2648 14.4752 27.2119 14.4752 27.0531C14.4752 26.8679 14.6604 26.762 14.9515 26.762C15.269 26.762 15.5866 26.8943 15.7454 26.9737L15.9835 26.5239ZM30.7492 26.2593C30.4316 26.2593 30.2199 26.418 30.0876 26.6297V26.3122H29.5319V28.8525H30.0876V27.4236C30.0876 27.0002 30.2729 26.762 30.6169 26.762C30.7227 26.762 30.855 26.7885 30.9609 26.815L31.1196 26.2857C31.0138 26.2593 30.855 26.2593 30.7492 26.2593ZM23.6574 27.5823C23.6574 28.3497 24.1867 28.9054 25.007 28.9054C25.3774 28.9054 25.6421 28.8261 25.9067 28.6144L25.6421 28.1645C25.4304 28.3233 25.2187 28.4027 24.9805 28.4027C24.5307 28.4027 24.2131 28.0851 24.2131 27.5823C24.2131 27.106 24.5307 26.7885 24.9805 26.762C25.2187 26.762 25.4304 26.8414 25.6421 27.0002L25.9067 26.5503C25.6421 26.3386 25.3774 26.2593 25.007 26.2593C24.1867 26.2593 23.6574 26.815 23.6574 27.5823ZM28.791 27.5823V26.3122H28.2353V26.6297C28.0501 26.3916 27.7855 26.2593 27.4415 26.2593C26.727 26.2593 26.1713 26.815 26.1713 27.5823C26.1713 28.3497 26.727 28.9054 27.4415 28.9054C27.8119 28.9054 28.0765 28.7731 28.2353 28.535V28.8525H28.791V27.5823ZM26.7534 27.5823C26.7534 27.1325 27.0445 26.762 27.5208 26.762C27.9707 26.762 28.2882 27.106 28.2882 27.5823C28.2882 28.0322 27.9707 28.4027 27.5208 28.4027C27.0445 28.3762 26.7534 28.0322 26.7534 27.5823ZM20.1115 26.2593C19.3706 26.2593 18.8414 26.7885 18.8414 27.5823C18.8414 28.3762 19.3706 28.9054 20.138 28.9054C20.5085 28.9054 20.8789 28.7996 21.17 28.5614L20.9054 28.1645C20.6937 28.3233 20.4291 28.4291 20.1645 28.4291C19.8205 28.4291 19.4765 28.2704 19.3971 27.8205H21.2759V27.6088C21.3023 26.7885 20.826 26.2593 20.1115 26.2593ZM20.1115 26.7356C20.4556 26.7356 20.6937 26.9473 20.7466 27.3442H19.4235C19.4765 27.0002 19.7146 26.7356 20.1115 26.7356ZM33.8981 27.5823V25.3066H33.3424V26.6297C33.1572 26.3916 32.8926 26.2593 32.5486 26.2593C31.8341 26.2593 31.2784 26.815 31.2784 27.5823C31.2784 28.3497 31.8341 28.9054 32.5486 28.9054C32.919 28.9054 33.1837 28.7731 33.3424 28.535V28.8525H33.8981V27.5823ZM31.8606 27.5823C31.8606 27.1325 32.1516 26.762 32.628 26.762C33.0778 26.762 33.3954 27.106 33.3954 27.5823C33.3954 28.0322 33.0778 28.4027 32.628 28.4027C32.1516 28.3762 31.8606 28.0322 31.8606 27.5823ZM13.2844 27.5823V26.3122H12.7287V26.6297C12.5435 26.3916 12.2789 26.2593 11.9349 26.2593C11.2204 26.2593 10.6647 26.815 10.6647 27.5823C10.6647 28.3497 11.2204 28.9054 11.9349 28.9054C12.3053 28.9054 12.5699 28.7731 12.7287 28.535V28.8525H13.2844V27.5823ZM11.2204 27.5823C11.2204 27.1325 11.5115 26.762 11.9878 26.762C12.4376 26.762 12.7552 27.106 12.7552 27.5823C12.7552 28.0322 12.4376 28.4027 11.9878 28.4027C11.5115 28.3762 11.2204 28.0322 11.2204 27.5823Z" fill="black"/>
<path d="M24.1343 7.02148H15.7988V21.9988H24.1343V7.02148Z" fill="#F7DA50"/>
<path d="M16.3282 14.5101C16.3282 11.467 17.7571 8.76792 19.9535 7.02144C18.3393 5.75128 16.3018 4.98389 14.079 4.98389C8.81308 4.98389 4.55273 9.24423 4.55273 14.5101C4.55273 19.776 8.81308 24.0363 14.079 24.0363C16.3018 24.0363 18.3393 23.269 19.9535 21.9988C17.7571 20.2788 16.3282 17.5532 16.3282 14.5101Z" fill="#EB001B"/>
<path d="M35.3812 14.5101C35.3812 19.776 31.1209 24.0363 25.855 24.0363C23.6322 24.0363 21.5946 23.269 19.9805 21.9988C22.2033 20.2523 23.6057 17.5532 23.6057 14.5101C23.6057 11.467 22.1768 8.76792 19.9805 7.02144C21.5946 5.75128 23.6322 4.98389 25.855 4.98389C31.1209 4.98389 35.3812 9.27069 35.3812 14.5101Z" fill="#F7DA50"/>
</svg>