<svg xmlns="http://www.w3.org/2000/svg" width="39" height="39" viewBox="0 0 39 39" fill="none">
<g clip-path="url(#clip0_1437:30564)">
<path d="M14.2441 24.5223L16.2173 13.637H19.3003L17.3888 24.5223H14.2441Z" fill="#3C58BF"/>
<path d="M14.2441 24.5223L16.7722 13.637H19.3003L17.3888 24.5223H14.2441Z" fill="#293688"/>
<path d="M28.5492 13.758C27.9326 13.5161 26.9461 13.2742 25.7129 13.2742C22.6299 13.2742 20.4101 14.786 20.4101 16.9631C20.4101 18.5959 21.9516 19.4425 23.1848 19.9868C24.418 20.5311 24.788 20.8939 24.788 21.3777C24.788 22.1034 23.8014 22.4663 22.9382 22.4663C21.705 22.4663 21.0267 22.2848 19.9785 21.8615L19.5469 21.6801L19.1152 24.1595C19.8552 24.4619 21.2117 24.7643 22.6299 24.7643C25.8978 24.7643 28.0559 23.2524 28.0559 20.9544C28.0559 19.6844 27.2544 18.7169 25.4046 17.9307C24.2947 17.3864 23.6164 17.0841 23.6164 16.5398C23.6164 16.056 24.1714 15.5722 25.4046 15.5722C26.4528 15.5722 27.1927 15.7536 27.7476 15.9955L28.0559 16.1165L28.5492 13.758Z" fill="#3C58BF"/>
<path d="M28.5492 13.758C27.9326 13.5161 26.9461 13.2742 25.7129 13.2742C22.6299 13.2742 20.965 14.786 20.965 16.9631C20.965 18.5959 21.9516 19.4425 23.1848 19.9868C24.418 20.5311 24.788 20.8939 24.788 21.3777C24.788 22.1034 23.8014 22.4663 22.9382 22.4663C21.705 22.4663 21.0267 22.2848 19.9785 21.8615L19.5469 21.6801L19.1152 24.1595C19.8552 24.4619 21.2117 24.7643 22.6299 24.7643C25.8978 24.7643 28.0559 23.2524 28.0559 20.9544C28.0559 19.6844 27.2544 18.7169 25.4046 17.9307C24.2947 17.3864 23.6164 17.0841 23.6164 16.5398C23.6164 16.056 24.1714 15.5722 25.4046 15.5722C26.4528 15.5722 27.1927 15.7536 27.7476 15.9955L28.0559 16.1165L28.5492 13.758Z" fill="#293688"/>
<path d="M33.8507 13.637C33.1108 13.637 32.5558 13.6974 32.2475 14.4231L27.623 24.5223H30.9527L31.5693 22.7081H35.5155L35.8855 24.5223H38.8452L36.2555 13.637H33.8507ZM32.4325 20.8939C32.6175 20.3496 33.6657 17.6887 33.6657 17.6887C33.6657 17.6887 33.9124 17.0235 34.0973 16.6002L34.2823 17.6283C34.2823 17.6283 34.8989 20.3496 35.0223 20.9544H32.4325V20.8939Z" fill="#3C58BF"/>
<path d="M34.5906 13.637C33.8507 13.637 33.2958 13.6974 32.9875 14.4231L27.623 24.5223H30.9527L31.5693 22.7081H35.5155L35.8855 24.5223H38.8452L36.2555 13.637H34.5906ZM32.4325 20.8939C32.6792 20.2891 33.6657 17.6887 33.6657 17.6887C33.6657 17.6887 33.9124 17.0235 34.0973 16.6002L34.2823 17.6283C34.2823 17.6283 34.8989 20.3496 35.0223 20.9544H32.4325V20.8939Z" fill="#293688"/>
<path d="M8.56982 21.2568L8.26152 19.6845C7.70658 17.8702 5.91844 15.8746 3.94531 14.907L6.72002 24.5829H10.0497L15.0441 13.6975H11.7145L8.56982 21.2568Z" fill="#3C58BF"/>
<path d="M8.56982 21.2568L8.26152 19.6845C7.70658 17.8702 5.91844 15.8746 3.94531 14.907L6.72002 24.5829H10.0497L15.0441 13.6975H12.3311L8.56982 21.2568Z" fill="#293688"/>
<path d="M0 13.637L0.554941 13.7579C4.50118 14.665 7.21423 16.963 8.26245 19.6844L7.15257 14.5441C6.96759 13.8184 6.41265 13.637 5.73439 13.637H0Z" fill="#F7DA50"/>
<path d="M0 13.637C3.94624 14.5441 7.21423 16.9026 8.26245 19.6239L7.21423 15.3302C7.02925 14.6046 6.41265 14.1812 5.73439 14.1812L0 13.637Z" fill="#F7DA50"/>
<path d="M0 13.637C3.94624 14.5441 7.21423 16.9026 8.26245 19.6239L7.52253 17.2654C7.33755 16.5397 7.09091 15.814 6.22767 15.5117L0 13.637Z" fill="#F7DA50"/>
<path d="M11.6537 20.8939L9.55722 18.8377L8.57066 21.1358L8.32402 19.6239C7.76908 17.8097 5.98093 15.814 4.00781 14.8464L6.78252 24.5223H10.1122L11.6537 20.8939Z" fill="#051244"/>
<path d="M17.3888 24.5224L14.7374 21.8616L14.2441 24.5224H17.3888Z" fill="#051244"/>
<path d="M24.4797 20.7729C24.7263 21.0148 24.8496 21.1963 24.788 21.4382C24.788 22.1639 23.8014 22.5267 22.9382 22.5267C21.705 22.5267 21.0267 22.3453 19.9785 21.922L19.5469 21.7405L19.1152 24.22C19.8552 24.5224 21.2117 24.8247 22.6299 24.8247C24.603 24.8247 26.2061 24.2805 27.131 23.3129L24.4797 20.7729Z" fill="#051244"/>
<path d="M28.0547 24.5222H30.9527L31.5693 22.708H35.5155L35.8855 24.5222H38.8452L37.797 20.1076L34.0974 16.6001L34.2823 17.5677C34.2823 17.5677 34.899 20.289 35.0223 20.8938H32.4325C32.6792 20.289 33.6657 17.6886 33.6657 17.6886C33.6657 17.6886 33.9124 17.0234 34.0974 16.6001" fill="#051244"/>
</g>
<defs>
<clipPath id="clip0_1437:30564">
<rect width="38.8458" height="38.0988" fill="white"/>
</clipPath>
</defs>
</svg>