<svg xmlns="http://www.w3.org/2000/svg" width="36" height="18" viewBox="0 0 36 18" fill="none">
<path d="M19.916 18H17.2982L13.6024 8.79006L9.93232 18H7.3145L0 0.0621971L4.85067 0.0621971L8.57208 9.93178L12.3192 0.0621971L14.9113 0.0621971L18.6584 9.93178L22.3798 0.0621971L28.2165 0L19.916 18Z" fill="black"/>
<path d="M28.1465 0L28.3262 0C30.7558 0 33.1426 0.865654 35.4867 2.82773L32.6379 5.41564C31.9535 5.0097 31.1836 4.66295 30.3281 4.3754C29.4897 4.08786 28.8224 3.94408 28.3262 3.94408H28.1465C26.4527 3.94408 25.6057 4.41769 25.6057 5.3649C25.6057 5.58479 25.6742 5.7793 25.811 5.94845C25.965 6.10068 26.196 6.21908 26.504 6.30365C26.812 6.38822 27.0686 6.44743 27.2739 6.48125C27.4793 6.51508 27.7787 6.55737 28.1722 6.60811L29.3271 6.7096C30.3024 6.81109 31.1664 6.98869 31.9193 7.24241C32.6892 7.47921 33.3907 7.80904 34.0238 8.2319C34.6569 8.65476 35.1445 9.2214 35.4867 9.9318C35.8289 10.6253 36 11.4372 36 12.3675C36 14.0758 35.3327 15.4375 33.9981 16.4523C32.6807 17.4503 30.9526 17.9662 28.8138 18H28.6855C27.0087 18 25.5031 17.6786 24.1685 17.0359C22.8339 16.3762 21.7303 15.5559 20.8577 14.5748L22.897 11.25C24.2658 12.5524 26.735 13.9405 28.6855 13.9405H28.8138C30.6959 13.9067 31.637 13.3824 31.637 12.3675C31.637 12.063 31.56 11.8093 31.406 11.6063C31.2691 11.4034 31.0296 11.2427 30.6874 11.1243C30.3623 11.0059 30.0714 10.9213 29.8148 10.8706C29.5581 10.8198 29.1988 10.7691 28.7368 10.7183L27.5562 10.5915C25.6913 10.3885 24.1685 9.88106 22.9879 9.06917C21.8244 8.25727 21.2427 7.0648 21.2427 5.49176C21.2427 3.80031 21.8843 2.45561 23.1675 1.45766C24.4679 0.442792 26.1276 0.0338285 28.1465 0Z" fill="black"/>
</svg>